<svg id="Layer_7" data-name="Layer 7" xmlns="http://www.w3.org/2000/svg" viewBox="0 0 677 183"><defs><style>.cls-1{fill:#e6e6e6;}</style></defs><title>annotatorj_logo_lightArtboard 1</title><path class="cls-1" d="M4.53,94.51,32.37,5.71H54.81l27.84,88.8H64.17l-5.64-18.6H28.29l-5.52,18.6ZM32.49,60H54.33L43.41,21Z"/><path class="cls-1" d="M91.53,94.51V30.07h14.64l3.12,6.6a36.61,36.61,0,0,1,9.06-5.34A28.22,28.22,0,0,1,129.57,29q7.92,0,12.24,3.12a16.41,16.41,0,0,1,6.06,8.34A36.46,36.46,0,0,1,149.61,52V94.51H131.85V54.31a10.48,10.48,0,0,0-1.14-5.16A7.71,7.71,0,0,0,127.53,46,10.39,10.39,0,0,0,122.61,45a19.49,19.49,0,0,0-4.86.6,21.17,21.17,0,0,0-4.44,1.68,28.14,28.14,0,0,0-4,2.52V94.51Z"/><path class="cls-1" d="M317,95.11a49.58,49.58,0,0,1-13.56-1.62A19.49,19.49,0,0,1,294.21,88a23.19,23.19,0,0,1-5.16-10.2,64.8,64.8,0,0,1-1.62-15.72,68,68,0,0,1,1.62-16.26,21.88,21.88,0,0,1,5.16-10.08,19.39,19.39,0,0,1,9.24-5.16,53.5,53.5,0,0,1,13.5-1.5,51.92,51.92,0,0,1,13.68,1.56,19.8,19.8,0,0,1,9.18,5.22A21.88,21.88,0,0,1,345,46a67.38,67.38,0,0,1,1.62,16.14,69.24,69.24,0,0,1-1.56,16,22.21,22.21,0,0,1-5,10.14,19.17,19.17,0,0,1-9.18,5.28A53.16,53.16,0,0,1,317,95.11ZM317,81a21.24,21.24,0,0,0,5.46-.6,6.47,6.47,0,0,0,3.6-2.46,14.07,14.07,0,0,0,2.1-5.7,56.77,56.77,0,0,0,.72-10.08A56.58,56.58,0,0,0,328.11,52a14,14,0,0,0-2.1-5.64,6.47,6.47,0,0,0-3.6-2.46,21.24,21.24,0,0,0-5.46-.6,20.69,20.69,0,0,0-5.34.6A6.75,6.75,0,0,0,308,46.33a12.9,12.9,0,0,0-2.1,5.64,61.63,61.63,0,0,0-.66,10.14,61.83,61.83,0,0,0,.66,10.08,13,13,0,0,0,2.1,5.7,6.75,6.75,0,0,0,3.66,2.46A20.69,20.69,0,0,0,317,81Z"/><path class="cls-1" d="M382.83,94.51q-7.44,0-12.06-2.16a13,13,0,0,1-6.66-7.2q-2-5-1.8-13.56l.6-27.24H352.83V33l10.68-2.88,2.4-18h14v18h15.12V44.35H380V71.47a16.1,16.1,0,0,0,.48,4.32,6.87,6.87,0,0,0,1.38,2.7,5.5,5.5,0,0,0,2.1,1.5,8.8,8.8,0,0,0,2.4.6l8.16.72v13.2Z"/><path class="cls-1" d="M418.71,95.23q-7.32,0-11.88-4.32t-4.56-12V73.15a15.66,15.66,0,0,1,5.16-12.06q5.16-4.74,16.08-4.74H440V51.91a10.31,10.31,0,0,0-1.08-5,6.43,6.43,0,0,0-4-2.88,32.83,32.83,0,0,0-8.94-.9H406.59V32.83a89.84,89.84,0,0,1,10.86-2.52,88.35,88.35,0,0,1,14.94-1.08,43.29,43.29,0,0,1,13.74,1.92,15.75,15.75,0,0,1,8.64,6.6q2.94,4.68,2.94,13v43.8h-14l-2.88-6.84a12.05,12.05,0,0,1-2.88,2.16,44.53,44.53,0,0,1-5,2.46,38.79,38.79,0,0,1-6.6,2.1A34,34,0,0,1,418.71,95.23Zm9-12.36a13.9,13.9,0,0,0,2.7-.3q1.5-.3,3.12-.72t3-.84q1.38-.42,2.28-.78t1.14-.48v-15l-10.8.72q-4.68.36-6.9,2.4A7.13,7.13,0,0,0,420,73.39V76a7.1,7.1,0,0,0,1,4,5.59,5.59,0,0,0,2.76,2.22A10.93,10.93,0,0,0,427.71,82.87Z"/><path class="cls-1" d="M495.51,94.51q-7.44,0-12.06-2.16a13,13,0,0,1-6.66-7.2q-2-5-1.8-13.56l.6-27.24H465.51V33l10.68-2.88,2.4-18h14v18h15.12V44.35H492.63V71.47a16.1,16.1,0,0,0,.48,4.32,6.87,6.87,0,0,0,1.38,2.7,5.5,5.5,0,0,0,2.1,1.5,8.8,8.8,0,0,0,2.4.6l8.16.72v13.2Z"/><path class="cls-1" d="M545.31,95.11a49.58,49.58,0,0,1-13.56-1.62A19.44,19.44,0,0,1,522.57,88a23.19,23.19,0,0,1-5.16-10.2,64.8,64.8,0,0,1-1.62-15.72,68,68,0,0,1,1.62-16.26,21.88,21.88,0,0,1,5.16-10.08,19.35,19.35,0,0,1,9.24-5.16,53.39,53.39,0,0,1,13.5-1.5A52,52,0,0,1,559,30.67a19.8,19.8,0,0,1,9.18,5.22A21.88,21.88,0,0,1,573.33,46,67.38,67.38,0,0,1,575,62.11a69.79,69.79,0,0,1-1.56,16,22.21,22.21,0,0,1-5,10.14,19.21,19.21,0,0,1-9.18,5.28A53.16,53.16,0,0,1,545.31,95.11Zm0-14.16a21.24,21.24,0,0,0,5.46-.6,6.47,6.47,0,0,0,3.6-2.46,14.07,14.07,0,0,0,2.1-5.7,56.77,56.77,0,0,0,.72-10.08A56.58,56.58,0,0,0,556.47,52a14,14,0,0,0-2.1-5.64,6.47,6.47,0,0,0-3.6-2.46,21.24,21.24,0,0,0-5.46-.6,20.63,20.63,0,0,0-5.34.6,6.75,6.75,0,0,0-3.66,2.46,12.78,12.78,0,0,0-2.1,5.64,61.63,61.63,0,0,0-.66,10.14,61.83,61.83,0,0,0,.66,10.08,12.86,12.86,0,0,0,2.1,5.7A6.75,6.75,0,0,0,540,80.35,20.63,20.63,0,0,0,545.31,81Z"/><path class="cls-1" d="M586.71,94.51V30.07h13.68l4.08,9.84a37.94,37.94,0,0,1,7.86-7.56,17.42,17.42,0,0,1,10.38-3.12q1.32,0,2.7.12a12.83,12.83,0,0,1,2.58.48V48.07q-1.8-.24-3.78-.42t-3.78-.18a23.52,23.52,0,0,0-6.3.78A18.77,18.77,0,0,0,609,50.53a22.29,22.29,0,0,0-4.5,3.9V94.51Z"/><path class="cls-1" d="M303.45,161.47a11,11,0,0,1-7.6-2.72c-2-1.81-3-4.42-3-7.84v-2.48a10.8,10.8,0,0,1,3.24-8.2q3.24-3.07,9.48-3.08h17.28V130a13.29,13.29,0,0,0-1.08-5.56,7.65,7.65,0,0,0-3.76-3.68,17.44,17.44,0,0,0-7.56-1.32h-13.6v-1.28q2.49-.07,5.92-.24t7.84-.24a19.17,19.17,0,0,1,8.24,1.36,9.15,9.15,0,0,1,4.52,4.2,14.76,14.76,0,0,1,1.4,6.76v31h-1.28l-.64-5.12c-.05,0-.7.28-2,.84s-2.86,1.22-4.84,2a56.41,56.41,0,0,1-6.28,2A25.58,25.58,0,0,1,303.45,161.47Zm0-1.92a18,18,0,0,0,4.44-.44c1.68-.34,3.39-.76,5.12-1.24s3.35-1,4.84-1.48,3.15-1.1,5-1.8V138.43l-17.76.56q-5.67.16-8,2.84a9.78,9.78,0,0,0-2.32,6.6v2.08a9.43,9.43,0,0,0,1.36,5.36,7.26,7.26,0,0,0,3.4,2.8A12,12,0,0,0,303.45,159.55Z"/><path class="cls-1" d="M339,180V118.51h1.28l.64,4.56a33.74,33.74,0,0,1,4-2.08,40.85,40.85,0,0,1,5.76-2.08,21.86,21.86,0,0,1,5.84-.88,12.94,12.94,0,0,1,7.28,2,14.76,14.76,0,0,1,4.76,5.16,23.61,23.61,0,0,1,2.56,7,37.28,37.28,0,0,1,.76,7.44,36,36,0,0,1-1.8,12.32,14.57,14.57,0,0,1-5.2,7.24,14.23,14.23,0,0,1-8.36,2.36,24,24,0,0,1-8-1.44,39.91,39.91,0,0,1-7.6-3.6V180Zm17.52-20.24a12.47,12.47,0,0,0,7-2,12.78,12.78,0,0,0,4.72-6.36q1.73-4.39,1.72-11.84a27.78,27.78,0,0,0-2-11.32,14.65,14.65,0,0,0-5-6.4,11.39,11.39,0,0,0-6.48-2,23.8,23.8,0,0,0-8.56,1.48c-2.56,1-4.9,2-7,3.08v30.8a46.83,46.83,0,0,0,7.72,3.28A25.32,25.32,0,0,0,356.49,159.71Z"/><path class="cls-1" d="M392.41,161.47a11,11,0,0,1-7.6-2.72c-2-1.81-3-4.42-3-7.84v-2.48a10.8,10.8,0,0,1,3.24-8.2q3.24-3.07,9.48-3.08h17.28V130a13.29,13.29,0,0,0-1.08-5.56,7.65,7.65,0,0,0-3.76-3.68,17.44,17.44,0,0,0-7.56-1.32h-13.6v-1.28q2.49-.07,5.92-.24t7.84-.24a19.17,19.17,0,0,1,8.24,1.36,9.15,9.15,0,0,1,4.52,4.2,14.76,14.76,0,0,1,1.4,6.76v31h-1.28l-.64-5.12s-.71.28-2,.84-2.86,1.22-4.84,2a56.41,56.41,0,0,1-6.28,2A25.58,25.58,0,0,1,392.41,161.47Zm0-1.92a18,18,0,0,0,4.44-.44c1.68-.34,3.39-.76,5.12-1.24s3.35-1,4.84-1.48,3.15-1.1,5-1.8V138.43L394,139q-5.67.16-8,2.84a9.78,9.78,0,0,0-2.32,6.6v2.08a9.43,9.43,0,0,0,1.36,5.36,7.26,7.26,0,0,0,3.4,2.8A12,12,0,0,0,392.41,159.55Z"/><path class="cls-1" d="M427.93,161V118.51h1.28l.64,8.08a31.72,31.72,0,0,1,7.4-6.16,17.73,17.73,0,0,1,9.24-2.4,21.5,21.5,0,0,1,2.36.12,13,13,0,0,1,2,.36v1.92l-2-.32a17.17,17.17,0,0,0-2.36-.16,18.55,18.55,0,0,0-6.08.92,21.55,21.55,0,0,0-5.16,2.68,62.09,62.09,0,0,0-5.4,4.32V161Z"/><path class="cls-1" d="M460.81,109.79a.85.85,0,0,1-1-1v-5a.85.85,0,0,1,1-1h.88a.79.79,0,0,1,.68.28,1.19,1.19,0,0,1,.2.68v5c0,.64-.29,1-.88,1Zm-.56,51.2V118.51h1.92V161Z"/><path class="cls-1" d="M158.74,163.7V29.45h30.5l6.5,13.75a76.38,76.38,0,0,1,18.88-11.12A58.76,58.76,0,0,1,238,27.2q16.5,0,25.5,6.5a34.26,34.26,0,0,1,12.63,17.38,76.14,76.14,0,0,1,3.62,24.12v88.5h-37V80a21.9,21.9,0,0,0-2.37-10.75,16.09,16.09,0,0,0-6.63-6.5,21.64,21.64,0,0,0-10.25-2.25,40.72,40.72,0,0,0-10.12,1.25,44.34,44.34,0,0,0-9.25,3.5,58.68,58.68,0,0,0-8.38,5.25V163.7Z"/><path class="cls-1" d="M632.57,161.44a79,79,0,0,1-14-1.26A72,72,0,0,1,607,157.24V132.46q4.41.42,9.24.74t9.24.31a22,22,0,0,0,9.14-1.68,11.16,11.16,0,0,0,5.46-5.14,20.59,20.59,0,0,0,1.78-9.35V4.78h31.08V122q0,13.23-4.09,22a26.69,26.69,0,0,1-13,13.13Q646.86,161.45,632.57,161.44Z"/></svg>