<?xml version="1.0" encoding="utf-8"?>
<!-- Generator: Adobe Illustrator 23.0.1, SVG Export Plug-In . SVG Version: 6.00 Build 0)  -->
<svg version="1.1" id="Layer_1" xmlns="http://www.w3.org/2000/svg" xmlns:xlink="http://www.w3.org/1999/xlink" x="0px" y="0px"
	 viewBox="0 0 24 24" style="enable-background:new 0 0 24 24;" xml:space="preserve">
<style type="text/css">
	.st0{fill:#FFFFFF;}
</style>
<path class="st0" d="M12,17c-2.8,0-5-2.2-5-5s2.2-5,5-5s5,2.2,5,5S14.8,17,12,17z M12,9c-1.7,0-3,1.3-3,3s1.3,3,3,3s3-1.3,3-3
	S13.7,9,12,9z"/>
<path class="st0" d="M22.6,9.1C22.4,9,21.7,9,21.7,9c-0.5,0-1-0.4-1-1c0-0.3,0.1-0.5,0.3-0.7c0,0,0.5-0.5,0.6-0.7
	c0.4-0.8,0.3-1.7-0.4-2.3l-1.4-1.4c-0.4-0.4-0.9-0.6-1.4-0.6c-0.3,0-0.6,0.1-0.9,0.2C17.3,2.5,16.7,3,16.7,3
	c-0.2,0.2-0.4,0.3-0.7,0.3c-0.6,0-1-0.5-1-1V2c0-0.2,0-0.4-0.1-0.6C14.7,0.6,13.9,0,13,0h-2c-0.9,0-1.7,0.6-1.9,1.4C9,1.6,9,1.8,9,2
	v0.3c0,0.5-0.4,1-1,1C7.7,3.3,7.4,3.2,7.3,3c0,0-0.5-0.5-0.7-0.6C6.3,2.3,6,2.2,5.6,2.2c-0.5,0-1,0.2-1.4,0.6L2.8,4.2
	C2.2,4.8,2.1,5.8,2.5,6.6C2.5,6.7,3,7.3,3,7.3C3.2,7.5,3.3,7.7,3.3,8c0,0.6-0.5,1-1,1c0,0-0.8,0-0.9,0.1C0.6,9.3,0,10.1,0,11v2
	c0,0.9,0.6,1.7,1.4,1.9C1.6,15,2.3,15,2.3,15c0.5,0,1,0.4,1,1c0,0.3-0.1,0.5-0.3,0.7c0,0-0.5,0.5-0.6,0.7c-0.4,0.8-0.3,1.7,0.3,2.3
	l1.4,1.4c0.4,0.4,0.9,0.6,1.4,0.6c0.3,0,0.6-0.1,0.9-0.2C6.7,21.5,7.3,21,7.3,21c0.2-0.2,0.4-0.3,0.7-0.3c0.6,0,1,0.5,1,1V22
	c0,0.2,0,0.4,0.1,0.6c0.3,0.8,1,1.4,1.9,1.4h2c0.9,0,1.7-0.6,1.9-1.4C15,22.4,15,22.2,15,22v-0.3c0-0.5,0.4-1,1-1
	c0.3,0,0.6,0.1,0.7,0.3c0,0,0.5,0.5,0.7,0.6c0.3,0.1,0.6,0.2,0.9,0.2c0.5,0,1-0.2,1.4-0.6l1.4-1.4c0.6-0.6,0.8-1.6,0.4-2.3
	c-0.1-0.2-0.6-0.7-0.6-0.7c-0.2-0.2-0.3-0.4-0.3-0.7c0-0.6,0.5-1,1-1c0,0,0.8,0,0.9-0.1c0.8-0.3,1.4-1,1.4-1.9v-2
	C24,10.1,23.4,9.3,22.6,9.1z M22,12.5c0,0.3-0.2,0.5-0.5,0.5c-1.6,0.1-2.9,1.4-2.9,3c0,0.8,0.3,1.5,0.8,2c0.1,0.1,0.1,0.2,0.1,0.3
	c0,0.1,0,0.3-0.1,0.3l-0.7,0.7c-0.1,0.1-0.2,0.1-0.4,0.1c-0.1,0-0.3,0-0.3-0.1c-0.5-0.5-1.3-0.8-2-0.8c-1.6,0-2.9,1.3-3,2.9
	c0,0.3-0.2,0.5-0.5,0.5h-1c-0.3,0-0.5-0.2-0.5-0.5c-0.1-1.6-1.4-2.9-3-2.9c-0.8,0-1.5,0.3-2,0.8c-0.1,0.1-0.2,0.1-0.3,0.1
	c-0.1,0-0.3-0.1-0.3-0.1l-0.7-0.7c-0.1-0.1-0.1-0.2-0.1-0.3c0-0.1,0.1-0.2,0.1-0.3c0.5-0.5,0.8-1.3,0.8-2c0-1.6-1.3-2.9-2.9-3
	C2.2,13,2,12.8,2,12.5v-1C2,11.2,2.2,11,2.5,11c1.6-0.1,2.8-1.4,2.8-3c0-0.7-0.3-1.4-0.8-2c0,0,0,0,0,0C4.5,5.9,4.4,5.8,4.4,5.6
	c0-0.1,0.1-0.3,0.2-0.4l0.7-0.7h0c0.1-0.1,0.2-0.2,0.4-0.2c0.1,0,0.3,0.1,0.3,0.2c0.6,0.5,1.3,0.8,2,0.8c1.6,0,2.9-1.3,3-2.8
	C11,2.2,11.2,2,11.5,2h1C12.8,2,13,2.2,13,2.5c0.1,1.6,1.4,2.8,3,2.8c0.8,0,1.5-0.3,2-0.8c0.1-0.1,0.2-0.2,0.4-0.2
	c0.1,0,0.3,0.1,0.4,0.2h0l0.7,0.7c0.1,0.1,0.1,0.2,0.1,0.4c0,0.1,0,0.3-0.1,0.3c0,0,0,0,0,0c-0.5,0.6-0.8,1.3-0.8,2
	c0,1.6,1.3,2.9,2.8,3c0.3,0,0.5,0.2,0.5,0.5C22,11.5,22,12.5,22,12.5z"/>
</svg>
